{"title":"Along Came a Spider 2001 DVDRip XviD-NoZGT","uid":7027401,"size":882005687,"categoryP":"video","categoryS":"movies","magnet":"?xt=urn:btih:fcdf6efbcb211fe34b222417702796d939847116&amp;dn=Along+Came+a+Spider+2001+DVDRip+XviD-NoZGT&amp;tr=udp%3A%2F%2Ftracker.openbittorrent.com%3A80&amp;tr=udp%3A%2F%2Fopen.demonii.com%3A1337&amp;tr=udp%3A%2F%2Ftracker.coppersurfer.tk%3A6969&amp;tr=udp%3A%2F%2Fexodus.desync.com%3A6969","seeders":1,"leechers":0,"uploader":"MScope40","files":-1,"time":1329118293,"description":"Plot\n\nA congressman's daughter under Secret Service protection is kidnapped from a private school by an insider who calls Det. Alex Cross, sucking him into the case even though he's recovering from the loss of his partner.\n\nGeneral Information\n\nFormat : AVI\nFormat/Info : Audio Video Interleave\nFile size : 833 MiB\nDuration : 1h 43mn\nOverall bit rate : 1 129 Kbps\nWriting library : VirtualDub build 33848/release\n\nVideo Information\n\nID : 0\nFormat : MPEG-4 Visual\nFormat profile : Advanced Simple@L5\nFormat settings, BVOP : Yes\nFormat settings, QPel : No\nFormat settings, GMC : No warppoints\nFormat settings, Matrix : Default (H.263)\nMuxing mode : Packed bitstream\nCodec ID : XVID\nCodec ID/Hint : XviD\nDuration : 1h 43mn\nBit rate : 926 Kbps\nWidth : 720 pixels\nHeight : 304 pixels\nDisplay aspect ratio : 2.35:1\nFrame rate : 29.970 fps\nColor space : YUV\nChroma subsampling : 4:2:0\nBit depth : 8 bits\nScan type : Progressive\nBits/(Pixel*Frame) : 0.141\nStream size : 682 MiB (82%)\nWriting library : XviD 1.2.1 (UTC 2008-12-04)\n\nAudio Information\n\nID : 1\nFormat : MPEG Audio\nFormat version : Version 1\nFormat profile : Layer 3\nCodec ID : 55\nCodec ID/Hint : MP3\nDuration : 1h 43mn\nBit rate mode : Constant\nBit rate : 192 Kbps\nChannel(s) : 2 channels\nSampling rate : 44.1 KHz\nStream size : 142 MiB (17%)\nAlignment : Split accross interleaves\nInterleave, duration : 33 ms (1.00 video frame)\nInterleave, preload duration : 500 ms\n\n &lt;a href=&quot;\nhttp://www.imgcrave.com/u/2J4c.jpg&quot; rel=&quot;nofollow&quot; target=&quot;_NEW&quot;&gt;\nhttp://www.imgcrave.com/u/2J4c.jpg&lt;/a&gt;\n &lt;a href=&quot;\nhttp://www.imgcrave.com/u/aNsX.jpg&quot; rel=&quot;nofollow&quot; target=&quot;_NEW&quot;&gt;\nhttp://www.imgcrave.com/u/aNsX.jpg&lt;/a&gt;","torrent":{"xt":"urn:btih:fcdf6efbcb211fe34b222417702796d939847116","amp;dn":"Along+Came+a+Spider+2001+DVDRip+XviD-NoZGT","amp;tr":["udp%3A%2F%2Ftracker.openbittorrent.com%3A80","udp%3A%2F%2Fopen.demonii.com%3A1337","udp%3A%2F%2Ftracker.coppersurfer.tk%3A6969","udp%3A%2F%2Fexodus.desync.com%3A6969"],"infoHash":"fcdf6efbcb211fe34b222417702796d939847116","infoHashBuffer":{"type":"Buffer","data":[252,223,110,251,203,33,31,227,75,34,36,23,112,39,150,217,57,132,113,22]},"announce":[],"urlList":[]}}